<?xml version="1.0" encoding="utf-8"?>
<!-- Generator: Adobe Illustrator 16.2.0, SVG Export Plug-In . SVG Version: 6.00 Build 0)  -->
<!DOCTYPE svg PUBLIC "-//W3C//DTD SVG 1.0//EN" "http://www.w3.org/TR/2001/REC-SVG-20010904/DTD/svg10.dtd">
<svg version="1.0" id="Ebene_1" xmlns="http://www.w3.org/2000/svg" xmlns:xlink="http://www.w3.org/1999/xlink" x="0px" y="0px"
	 width="557.139px" height="137.778px" viewBox="0 0 557.139 137.778" enable-background="new 0 0 557.139 137.778"
	 xml:space="preserve">
<path fill="#FFFFFF" d="M8.104,33.03v31.341c1.43-1.19,2.86-2.384,4.409-3.576c2.979-2.264,9.295-7.031,19.424-7.031
	c3.813,0,13.465,0.835,21.57,7.986c6.79,5.959,10.961,15.133,10.961,24.311c0,2.143-0.358,6.792-2.501,12.155
	c-5.124,12.51-16.803,20.02-30.03,20.02c-2.74,0-5.72-0.358-8.341-1.072c-6.316-1.789-10.487-5.245-15.613-9.654v9.296H0V33.03
	H8.104z M9.534,94.521c3.575,9.771,12.632,15.609,22.88,15.609c1.67,0,5.839-0.117,10.128-2.145
	c8.343-3.811,13.823-12.751,13.823-21.925c0-3.575-0.952-7.271-2.383-10.368c-3.931-8.342-12.752-13.823-21.928-13.823
	c-2.738,0-9.65,0.595-15.609,5.719c-2.503,2.026-8.104,7.985-8.462,17.398C7.748,89.515,8.939,92.853,9.534,94.521z"/>
<path fill="#FFFFFF" d="M82.339,55.077v5.955c3.217-2.617,4.766-3.691,8.459-5.241c3.934-1.549,5.484-1.905,9.773-1.905v8.341
	c-2.265,0.121-6.792,0.121-11.32,3.93c-1.67,1.313-2.862,2.983-3.338,3.577c-2.741,4.051-3.1,7.508-3.1,12.395v34.796h-8.341V55.077
	H82.339z"/>
<path fill="#FFFFFF" d="M158.691,55.314h7.864v61.369h-7.983v-9.175c-1.43,1.31-2.86,2.741-4.528,3.933
	c-2.978,2.264-9.533,6.673-19.663,6.673c-3.931,0-12.632-0.714-20.735-7.506c-10.128-8.461-11.439-20.142-11.439-24.669
	c0-2.384,0.239-7.03,2.503-12.513c5.126-12.035,17.04-19.541,30.03-19.541c1.431,0,4.289,0.117,7.626,0.95
	c6.911,1.67,10.965,5.124,16.326,9.775V55.314z M112.099,95.83c3.931,8.938,12.393,14.3,22.163,14.3
	c2.861,0,9.295-0.477,15.373-5.361c5.481-4.41,8.938-11.679,8.938-18.829c0-1.669-0.239-5.363-2.145-9.654
	c-3.933-8.815-12.513-14.535-22.166-14.535c-8.22,0-13.822,4.169-15.969,6.196c-2.382,2.143-8.221,8.46-8.221,18.114
	C110.072,87.729,110.191,91.539,112.099,95.83z"/>
<path fill="#FFFFFF" d="M186.689,55.314v5.718c6.793-4.644,10.962-7.269,19.186-7.269c3.099,0,11.2,0.239,18.352,6.318
	c2.383,2.145,4.289,4.529,5.48,7.388c1.312,3.098,1.789,5.124,1.789,11.081v38.373h-8.223V83.079c0-1.784-0.119-3.573-0.358-5.242
	c-0.357-2.622-0.953-8.697-7.387-12.87c-1.67-1.074-5.126-2.86-10.13-2.86c-1.788,0-5.84,0.241-10.011,2.505
	c-9.057,5.003-8.698,14.774-8.698,17.991v34.202h-8.223v-61.49H186.689z"/>
<path fill="#FFFFFF" d="M297.625,33.03h8.104v83.894h-8.104v-9.415c-0.596,0.598-2.859,2.862-5.241,4.53
	c-5.482,4.05-12.275,6.075-19.069,6.075c-11.796,0-19.304-6.075-22.401-8.937c-2.981-2.86-9.771-10.962-9.771-23.238
	c0-6.671,2.026-11.438,3.099-13.702c5.481-11.562,16.802-18.474,29.313-18.474c1.312,0,4.409,0.122,7.747,0.957
	c6.674,1.668,10.963,5.002,16.324,9.413V33.03z M254.726,101.313c2.265,2.862,8.461,8.817,18.589,8.817
	c1.67,0,5.721-0.237,9.894-2.023c8.697-3.815,14.537-12.514,14.537-22.046c0-8.819-4.887-14.778-7.031-16.921
	c-6.314-6.555-14.179-7.39-17.279-7.39c-1.667,0-5.72,0.237-10.129,2.264c-7.983,3.695-13.584,11.916-14.061,20.854
	C248.889,93.09,252.938,99.049,254.726,101.313z"/>
<path fill="#FFFFFF" d="M325.863,55.195v9.532c2.024-2.264,2.978-3.099,4.169-4.052c2.979-2.382,9.771-6.79,20.14-6.79
	c3.813,0,13.942,0.835,22.164,8.937c8.699,8.581,9.892,19.185,9.892,23.354c-0.12,5.125-1.312,9.179-1.907,10.846
	c-5.242,14.419-17.397,19.304-22.284,20.378c-1.312,0.356-4.17,0.835-7.864,0.835c-1.43,0-4.409,0-8.224-0.956
	c-6.792-1.547-10.844-5.003-16.085-9.413v29.912h-8.104V55.195H325.863z M327.411,94.878c3.574,9.413,12.393,15.372,22.523,15.372
	c1.905,0,5.957-0.12,10.365-2.265c8.224-3.932,13.824-12.751,13.824-22.046c0-1.786-0.118-5.601-2.145-10.01
	c-3.814-8.579-12.752-14.18-22.045-14.18c-1.788,0-5.244,0.237-9.534,2.026c-8.7,3.693-14.537,12.393-14.659,22.043
	C325.741,87.607,325.863,90.704,327.411,94.878z"/>
<path fill="#FFFFFF" d="M397.235,55.195c0-3.098,0.119-6.434,1.072-9.294c0.596-2.026,2.264-5.959,6.912-9.058
	c4.527-2.979,9.176-3.456,14.419-3.933v7.747c-0.716,0-5.48,0.117-8.819,1.785c-5.122,2.502-5.243,7.628-5.243,12.752h14.063v7.39
	h-14.181v54.22h-8.223V62.822h-9.413v-7.627H397.235z"/>
<path fill="#FFFFFF" d="M484.432,69.377l-12.751,10.725l-12.867,10.844l-12.751,10.844l-4.648,3.813l0.477,0.357l0.357,0.358
	c2.146,1.431,5.48,2.738,10.011,3.575c1.07,0.12,2.145,0.12,3.218,0.237c3.574,0,7.387-0.715,11.438-2.382
	c3.933-1.55,7.388-3.694,10.013-6.078l0.475-0.479l0.596-0.475v9.533l-0.954,0.833c-3.456,3.336-9.175,5.601-15.729,6.674
	c-1.789,0.239-3.694,0.479-5.601,0.479c-9.177,0.118-17.518-3.458-23.595-9.295c-5.959-5.84-9.652-13.945-9.652-23.121
	c0-8.815,3.693-16.801,9.771-22.639c5.958-5.722,14.299-9.178,23.476-9.295c5.959,0,11.797,1.429,16.802,4.289
	c5.004,2.742,8.94,6.674,11.441,10.367l0.237,0.356L484.432,69.377z M435.575,100.121l11.795-9.892l12.751-10.961l12.874-10.727
	l-0.479-0.358l-0.357-0.358c-4.289-4.049-10.248-5.838-16.207-5.838c-8.46,0-16.207,3.932-20.972,10.726
	c-0.834,1.192-1.67,2.623-2.265,4.052c-1.191,2.741-1.907,5.601-1.907,8.578c0,1.313,0,2.504,0.239,3.814
	c0.477,3.812,1.905,7.269,3.933,10.129l0.237,0.477L435.575,100.121z"/>
<path fill="#FFFFFF" d="M504.446,55.314v61.49h-7.986v-61.49H504.446z M504.325,32.911v14.656h-7.743V32.911H504.325z"/>
<path fill="#FFFFFF" d="M524.107,32.79v84.015h-7.986V32.79H524.107z"/>
<g>
	<g>
		<path fill="#D51224" d="M541.905,33.03h-8.637V15.232h8.637V33.03z"/>
		<path fill="#D51224" d="M541.905,15.232v8.637h-17.798v-8.637H541.905z"/>
	</g>
	<g>
		<path fill="#D51224" d="M557.139,17.798h-8.637V0h8.637V17.798z"/>
		<path fill="#D51224" d="M557.139,0v8.636h-17.798V0H557.139z"/>
	</g>
</g>
</svg>
